<?xml version="1.0" encoding="UTF-8" standalone="no"?>
<!-- Generator: Adobe Illustrator 13.0.2, SVG Export Plug-In . SVG Version: 6.00 Build 14948)  -->

<svg
   version="1.0"
   id="Layer_1"
   x="0px"
   y="0px"
   width="64px"
   height="64px"
   viewBox="5.5 -3.5 64 64"
   enable-background="new 5.5 -3.5 64 64"
   xml:space="preserve"
   sodipodi:docname="cc-paths.svg"
   inkscape:version="1.1.1 (3bf5ae0d25, 2021-09-20)"
   xmlns:inkscape="http://www.inkscape.org/namespaces/inkscape"
   xmlns:sodipodi="http://sodipodi.sourceforge.net/DTD/sodipodi-0.dtd"
   xmlns="http://www.w3.org/2000/svg"
   xmlns:svg="http://www.w3.org/2000/svg"><defs
   id="defs11">
	
	
</defs><sodipodi:namedview
   id="namedview9"
   pagecolor="#ffffff"
   bordercolor="#666666"
   borderopacity="1.0"
   inkscape:pageshadow="2"
   inkscape:pageopacity="0.0"
   inkscape:pagecheckerboard="0"
   showgrid="false"
   inkscape:zoom="17.390897"
   inkscape:cx="31.970749"
   inkscape:cy="27.571896"
   inkscape:window-width="2560"
   inkscape:window-height="1373"
   inkscape:window-x="2551"
   inkscape:window-y="-9"
   inkscape:window-maximized="1"
   inkscape:current-layer="Layer_1" />
<path
   id="path896"
   style="display:inline;fill:none;stroke:#ff0000;stroke-width:0.474625;stroke-miterlimit:4;stroke-dasharray:none;stroke-opacity:0.582938"
   d="m 40.38278,28.420999 a 2.9140374,2.909915 0 0 1 -2.914038,2.909915 2.9140374,2.909915 0 0 1 -2.914037,-2.909915 2.9140374,2.909915 0 0 1 2.914037,-2.909915 2.9140374,2.909915 0 0 1 2.914038,2.909915 z" />
<path
   style="display:inline;fill:none;stroke:#ff0000;stroke-width:0.47;stroke-linecap:round;stroke-linejoin:miter;stroke-miterlimit:4;stroke-dasharray:none;stroke-opacity:0.582938"
   d="m 39.007334,27.872571 c -0.311544,-0.373853 -1.228848,-0.360482 -1.228373,0.542976 4.8e-4,0.903458 0.916829,0.961335 1.237274,0.542976"
   id="path1862"
   sodipodi:nodetypes="czc"
   inkscape:label="c2" /><path
   style="display:inline;fill:none;stroke:#ff0000;stroke-width:0.47;stroke-linecap:round;stroke-linejoin:miter;stroke-miterlimit:4;stroke-dasharray:none;stroke-opacity:0.582938"
   d="m 37.164775,27.872571 c -0.311544,-0.373853 -1.228848,-0.360482 -1.228373,0.542976 4.8e-4,0.903458 0.916829,0.961335 1.237274,0.542976"
   id="path1862-2"
   sodipodi:nodetypes="czc"
   inkscape:label="c1" /></svg>
